<svg xmlns="http://www.w3.org/2000/svg" version="1.1" width="512" height="512">
<path d="M0 0 C0.99765381 -0.01780518 1.99530762 -0.03561035 3.02319336 -0.05395508 C4.42903687 -0.05238403 4.42903687 -0.05238403 5.86328125 -0.05078125 C6.69770752 -0.05376221 7.53213379 -0.05674316 8.3918457 -0.05981445 C11.24401064 0.40275617 12.60027745 1.33928905 14.6875 3.3125 C15.91692778 7.00078334 15.38358666 9.8989345 14.85653687 13.65649414 C14.65050599 15.23046286 14.44549026 16.8045647 14.24132538 18.37877655 C14.13015853 19.22383224 14.01899168 20.06888792 13.90445614 20.93955135 C10.40200769 47.97190255 8.37423362 75.09196015 7.0625 102.3125 C7.00391941 103.49572468 6.94533882 104.67894936 6.88498306 105.89802933 C3.89796196 168.2183658 8.72726922 217.97341006 51.85891676 265.5696907 C63.95108874 278.71740633 76.88641324 290.90333142 90.1875 302.8125 C91.06428878 303.59974205 91.94107756 304.3869841 92.84443569 305.19808197 C112.66587559 322.95966099 133.0156445 340.01224918 154.24524498 356.06907654 C154.88164307 356.55118922 155.51804117 357.0333019 156.17372406 357.53002405 C157.35123611 358.41945045 158.53169666 359.30499236 159.71564114 360.18583822 C163.24318591 362.84174496 164.4786818 364.00738625 165.1875 368.4375 C164.46435416 374.04188027 161.65622063 376.48013686 157.6875 380.3125 C156.98496094 381.00085938 156.28242188 381.68921875 155.55859375 382.3984375 C110.89366079 424.2670887 51.74348848 441.01634579 -8.30187988 439.3861084 C-27.03718229 438.70021274 -46.67345579 434.61431238 -64.3125 428.3125 C-63.4690796 424.44682317 -61.91369875 421.10330907 -60.25 417.53125 C-57.18902733 410.286948 -57.83249554 403.20468631 -60.1796875 395.85546875 C-62.14214323 391.450094 -65.14211762 387.90849536 -68.3125 384.3125 C-67.71501953 383.56806641 -67.71501953 383.56806641 -67.10546875 382.80859375 C-60.88581174 374.83351043 -57.05985361 366.70417221 -58.3125 356.3125 C-60.26580916 348.75598398 -63.69100011 342.55152485 -68.3125 336.3125 C-67.91417969 335.88839844 -67.51585937 335.46429688 -67.10546875 335.02734375 C-61.38654745 328.69617783 -58.73508914 322.70051148 -58.0625 314.125 C-58.62369742 305.56673928 -61.47458411 297.70001048 -67.3125 291.3125 C-75.93802605 284.6654362 -84.68729951 283.04262228 -95.3125 282.3125 C-92.76094514 279.73770693 -90.19735213 277.2046812 -87.55078125 274.7265625 C-70.0654754 258.21860385 -59.24088799 236.7524602 -58.1875 212.42578125 C-57.65569152 184.87145453 -67.76683088 162.57108843 -86.48828125 143.04296875 C-103.65447013 126.65265281 -126.73601865 119.76117636 -150.03881836 119.89086914 C-164.30775001 120.26406606 -176.47496824 124.36919826 -189.3125 130.3125 C-190.97447945 130.99076729 -192.63950041 131.66188905 -194.3125 132.3125 C-193.72550521 128.72186996 -192.76781841 125.87500382 -191.08984375 122.65234375 C-190.63786621 121.782146 -190.18588867 120.91194824 -189.72021484 120.01538086 C-189.23504395 119.10280518 -188.74987305 118.19022949 -188.25 117.25 C-187.75193848 116.30842041 -187.25387695 115.36684082 -186.74072266 114.39672852 C-182.9846978 107.38423373 -178.99486022 100.75309589 -174.3125 94.3125 C-173.62929687 93.35730469 -172.94609375 92.40210938 -172.2421875 91.41796875 C-159.0945762 73.44014183 -144.17125341 57.62490209 -126.3125 44.3125 C-124.89130859 43.23355469 -124.89130859 43.23355469 -123.44140625 42.1328125 C-88.08948707 15.75997293 -44.11165869 0.5119275 0 0 Z " fill="#CB4238" transform="translate(220.3125,48.6875)"/>
<path d="M0 0 C0.76207764 0.00016113 1.52415527 0.00032227 2.30932617 0.00048828 C3.53872925 0.04665283 3.53872925 0.04665283 4.79296875 0.09375 C5.66606689 0.1129248 6.53916504 0.13209961 7.4387207 0.15185547 C56.3365834 1.74742908 103.92221612 19.53081042 140.98046875 51.59375 C141.76164063 52.2640625 142.5428125 52.934375 143.34765625 53.625 C155.76233747 64.53363793 167.32658852 76.15772189 176.98046875 89.59375 C177.45548828 90.25149414 177.93050781 90.90923828 178.41992188 91.58691406 C199.93614158 121.73513496 213.2201789 155.93333594 217.98046875 192.59375 C218.07545654 193.29943115 218.17044434 194.0051123 218.26831055 194.73217773 C219.04159482 200.9526187 219.23261914 207.14196038 219.29296875 213.40625 C219.32197266 214.42912109 219.35097656 215.45199219 219.38085938 216.50585938 C219.38923828 217.49005859 219.39761719 218.47425781 219.40625 219.48828125 C219.42812378 220.81629761 219.42812378 220.81629761 219.45043945 222.17114258 C218.79244109 225.56299594 217.75222831 226.52363675 214.98046875 228.59375 C211.93931317 228.98860261 209.26023926 229.13835444 206.2190094 229.1084137 C205.32482156 229.11535922 204.43063372 229.12230475 203.50934929 229.12946075 C200.50671313 229.14778806 197.50486196 229.13745046 194.50219727 229.12719727 C192.35210578 229.13425284 190.20201927 229.14299632 188.05194092 229.15330505 C182.20690609 229.17584944 176.3621414 229.17284744 170.51707959 229.16398358 C165.64111736 229.15888149 160.76520624 229.16615994 155.88924927 229.17345566 C144.38827914 229.19047078 132.88744163 229.18687259 121.38647461 229.17016602 C109.51324051 229.15324193 97.64037397 229.16907979 85.76718003 229.2013889 C75.58024132 229.22806136 65.39341719 229.23536715 55.20644706 229.22687382 C49.11913678 229.22193792 43.03204773 229.22419618 36.94476509 229.24466133 C31.22124046 229.26298151 25.49824569 229.25710419 19.77474976 229.23246193 C17.67246199 229.22744247 15.57013411 229.23097305 13.46787834 229.24361038 C10.6009425 229.25948286 7.73576382 229.24464476 4.86891174 229.22193909 C4.03408675 229.23377482 3.19926176 229.24561054 2.33913904 229.25780493 C-1.68115062 229.19297718 -3.60065299 228.86966374 -7.03537655 226.60722256 C-9.71905435 222.53133604 -9.71871078 219.53348154 -9.65444946 214.75 C-9.66224942 213.85904129 -9.67004937 212.96808258 -9.67808568 212.05012512 C-9.69803167 209.0642463 -9.68223081 206.07963832 -9.66650391 203.09375 C-9.67327885 200.95336157 -9.68218129 198.81297896 -9.6930542 196.67260742 C-9.71586846 190.85855853 -9.70700216 185.04495274 -9.69115877 179.230896 C-9.67851094 173.15001215 -9.69023679 167.06916656 -9.6980896 160.98828125 C-9.70718939 150.77597228 -9.69518948 140.56384404 -9.67138672 130.3515625 C-9.64417499 118.54021217 -9.6529889 106.72929336 -9.68051875 94.91795349 C-9.7031993 84.78193973 -9.706415 74.64605596 -9.6933254 64.51002502 C-9.68552516 58.45403977 -9.68450523 52.39825742 -9.70100784 46.34228516 C-9.71543783 40.6490964 -9.70545718 34.95646468 -9.67653656 29.26333618 C-9.66991796 27.17234218 -9.67183655 25.0813014 -9.68284988 22.99032593 C-9.69648606 20.1387484 -9.67941277 17.28896289 -9.65444946 14.4375 C-9.67117988 13.19212212 -9.67117988 13.19212212 -9.68824828 11.92158508 C-9.61506881 7.6210221 -9.39356594 6.06093735 -6.60626793 2.57946777 C-4.05652798 0.62215067 -3.12640589 -0.03363782 0 0 Z " fill="#CB4238" transform="translate(265.01953125,23.40625)"/>
<path d="M0 0 C0.8769992 -0.00297112 1.75399841 -0.00594224 2.65757334 -0.0090034 C5.60779487 -0.01770224 8.55797588 -0.01919964 11.50820923 -0.02069092 C13.6187397 -0.0253182 15.72926932 -0.03034274 17.83979797 -0.03573608 C23.58150815 -0.04886957 29.32320663 -0.05530674 35.06492949 -0.05974674 C38.64986167 -0.06267557 42.23479065 -0.06677998 45.81972122 -0.07125092 C57.02970693 -0.08492753 68.23968531 -0.09459373 79.44967878 -0.09845281 C92.40224084 -0.10293595 105.35469749 -0.12049512 118.30722749 -0.1494534 C128.31153181 -0.17104617 138.31580642 -0.18115578 148.32013381 -0.18249393 C154.29898796 -0.18354356 160.27774305 -0.18948511 166.25657272 -0.20731354 C171.87899534 -0.22375292 177.50124399 -0.22596983 183.12368202 -0.21717453 C185.18888756 -0.21640197 187.25410229 -0.22077553 189.31928444 -0.23063278 C192.13550995 -0.24328807 194.9511133 -0.23751047 197.76733398 -0.22705078 C198.5872773 -0.23510719 199.40722062 -0.24316359 200.2520107 -0.25146413 C204.83917644 -0.21153374 207.87769636 0.25354475 211.51065063 3.14044189 C221.52574731 23.17063524 207.7344958 62.34128897 201.17861938 82.25372314 C190.80761738 112.26965024 172.00796448 148.03565594 145.51065063 167.14044189 C142.69815063 167.82794189 142.69815063 167.82794189 139.51065063 167.14044189 C131.28656408 161.33462923 124.30982064 153.08027696 117.2159729 145.97515869 C115.77821663 144.53875906 114.34024805 143.1025719 112.90208435 141.6665802 C109.01598166 137.78501806 105.13302651 133.90032172 101.25078321 130.01489997 C97.18484778 125.9464264 93.11646591 121.8804004 89.04847717 117.8139801 C82.2252312 110.99255033 75.40408989 104.16902131 68.58413696 97.34429932 C60.69243801 89.44714571 52.79712537 81.55361868 44.89995152 73.66194028 C38.11752438 66.88404432 31.33703935 60.10421015 24.5581879 53.32273799 C20.50998191 49.27297094 16.46109836 45.22388753 12.41046333 41.17654991 C8.60872449 37.37769028 4.80942218 33.57641084 1.01202202 29.77321434 C-0.38477794 28.37508762 -1.78243791 26.97781951 -3.18099976 25.58145523 C-5.08304778 23.68212162 -6.98201766 21.77976419 -8.88020325 19.87657166 C-9.4399119 19.31909373 -9.99962055 18.76161579 -10.57629007 18.18724459 C-15.35070938 13.38820174 -15.35070938 13.38820174 -15.80184937 9.32794189 C-15.41588644 5.39112002 -14.25538257 3.9064751 -11.48934937 1.14044189 C-7.64036124 -0.14255415 -4.01099809 -0.00421572 0 0 Z " fill="#CB4238" transform="translate(299.4893493652344,271.85955810546875)"/>
<path d="M0 0 C10.55930701 9.42355842 17.57617612 20.2294111 22.33349609 33.59521484 C22.81496094 34.908125 22.81496094 34.908125 23.30615234 36.24755859 C28.82173929 54.12832185 26.18271387 74.99318836 17.64599609 91.40771484 C7.4360471 109.8286123 -8.42457397 122.48543714 -28.52490234 128.57055664 C-47.72781314 133.72636065 -68.04311173 130.94407719 -85.45166016 121.57177734 C-103.019438 110.77068914 -115.40826624 94.52898588 -120.66650391 74.59521484 C-125.19556979 54.66858072 -121.52189605 33.63341568 -110.85986328 16.40625 C-99.14639842 -1.37003526 -82.28150998 -11.57945898 -61.66650391 -16.40478516 C-39.88971731 -20.78221354 -16.82714027 -14.18449533 0 0 Z M-54.66650391 3.59521484 C-55.9887958 6.23979863 -55.76327585 8.27282785 -55.72900391 11.22021484 C-55.71998047 12.22310547 -55.71095703 13.22599609 -55.70166016 14.25927734 C-55.69005859 15.03013672 -55.67845703 15.80099609 -55.66650391 16.59521484 C-56.65650391 16.78083984 -57.64650391 16.96646484 -58.66650391 17.15771484 C-64.44633499 18.84594137 -68.77227164 22.72998957 -72.06103516 27.70458984 C-75.27337951 34.10657646 -76.01655033 40.38331885 -73.81884766 47.23974609 C-70.26854451 55.26704169 -64.97897952 59.3314732 -57.04150391 62.72021484 C-51.65950294 64.73217782 -46.12569983 66.20486113 -40.57275391 67.66552734 C-37.66650391 68.59521484 -37.66650391 68.59521484 -35.66650391 70.59521484 C-35.29150391 74.03271484 -35.29150391 74.03271484 -35.66650391 77.59521484 C-38.83753186 80.87558859 -41.97440373 81.54983123 -46.47900391 81.84521484 C-50.55978208 81.77047532 -53.2179038 80.89428158 -56.66650391 78.59521484 C-59.42690315 75.63764422 -61.56145021 72.77482278 -63.60400391 69.28271484 C-65.45841071 66.3812489 -65.45841071 66.3812489 -68.60400391 65.47021484 C-71.75573257 65.36899696 -71.75573257 65.36899696 -74.47900391 67.15771484 C-77.19590189 70.18511545 -77.74477459 71.52513905 -77.66650391 75.59521484 C-74.65760037 84.71479286 -68.05270819 91.26800496 -59.66650391 95.59521484 C-58.18150391 96.09021484 -58.18150391 96.09021484 -56.66650391 96.59521484 C-56.65232422 97.33126953 -56.63814453 98.06732422 -56.62353516 98.82568359 C-56.38953551 103.61318981 -56.20596661 106.77015424 -53.54150391 110.84521484 C-50.71122022 112.89972595 -50.71122022 112.89972595 -47.04150391 112.65771484 C-43.29157574 111.4771819 -42.5712732 110.90711101 -40.66650391 107.59521484 C-40.30615868 105.00639682 -40.30615868 105.00639682 -40.47900391 102.34521484 C-40.50607422 101.45318359 -40.53314453 100.56115234 -40.56103516 99.64208984 C-40.59583984 98.96662109 -40.63064453 98.29115234 -40.66650391 97.59521484 C-40.09802734 97.43666016 -39.52955078 97.27810547 -38.94384766 97.11474609 C-31.46121961 94.85371825 -25.99082175 92.21060975 -21.79150391 85.40771484 C-18.70365715 79.25247065 -17.59346577 72.97722647 -19.79150391 66.34521484 C-23.43195183 58.30386986 -28.56632974 54.68249053 -36.66650391 51.59521484 C-40.48418261 50.52420974 -44.2843343 49.56271568 -48.15087891 48.68505859 C-51.93625962 47.51159057 -54.56764005 46.05293445 -57.66650391 43.59521484 C-58.80635737 39.94768377 -58.91742098 37.20897529 -57.66650391 33.59521484 C-54.1510987 32.52680738 -50.83031348 32.39563424 -47.16650391 32.34521484 C-45.48041016 32.30654297 -45.48041016 32.30654297 -43.76025391 32.26708984 C-40.35760019 32.62797736 -39.06986647 33.21410564 -36.66650391 35.59521484 C-35.66650391 37.59521484 -34.66650391 39.59521484 -33.66650391 41.59521484 C-31.97486168 43.6355108 -31.97486168 43.6355108 -29.66650391 44.59521484 C-25.84836965 44.59521484 -24.15296452 43.98438334 -21.16650391 41.59521484 C-19.27968951 37.82158605 -19.51661297 35.92433947 -20.63916016 31.93896484 C-23.38847942 25.6667536 -28.68591622 20.77637851 -34.66650391 17.59521484 C-37.89689233 16.80450936 -37.89689233 16.80450936 -40.66650391 16.59521484 C-40.62009766 15.84755859 -40.57369141 15.09990234 -40.52587891 14.32958984 C-40.14406396 8.32067383 -40.14406396 8.32067383 -42.41650391 2.97021484 C-47.4435135 -0.10184657 -49.5415796 0.52026026 -54.66650391 3.59521484 Z " fill="#00FF00" transform="translate(121.66650390625,200.40478515625)"/>
<path d="M0 0 C1.01349518 -0.00571014 2.02699036 -0.01142029 3.07119751 -0.01730347 C4.17725845 -0.01842133 5.2833194 -0.01953918 6.42289734 -0.02069092 C7.59241943 -0.02565582 8.76194153 -0.03062073 9.96690369 -0.03573608 C13.8398548 -0.05035345 17.71276496 -0.05715887 21.58573914 -0.06268311 C22.92163302 -0.06541958 24.25752666 -0.06827602 25.59342003 -0.07125092 C31.8698379 -0.08491816 38.14624276 -0.0945886 44.42267448 -0.09845281 C51.65708144 -0.10293185 58.89129931 -0.1204757 66.1256488 -0.1494534 C71.72494716 -0.17109989 77.32419244 -0.18115866 82.92353219 -0.18249393 C86.26443462 -0.18353985 89.60501793 -0.19085675 92.94590187 -0.20731354 C96.67535849 -0.22437371 100.40435499 -0.22249353 104.13383484 -0.21600342 C105.78381721 -0.22982559 105.78381721 -0.22982559 107.46713257 -0.243927 C114.05104984 -0.20804787 119.55994581 0.13345255 124.71464539 4.67559814 C128.95239848 10.38925835 129.75712002 14.05668654 128.97245789 21.14044189 C126.76710319 25.55115128 124.05015053 28.38799936 119.97245789 31.14044189 C116.92796583 32.12664884 114.13356183 32.27009929 110.94491577 32.28088379 C109.424673 32.28944901 109.424673 32.28944901 107.87371826 32.29818726 C106.76765732 32.29930511 105.66159637 32.30042297 104.52201843 32.30157471 C103.35249634 32.30653961 102.18297424 32.31150452 100.97801208 32.31661987 C97.10506097 32.33123724 93.23215081 32.33804266 89.35917664 32.34356689 C88.02328275 32.34630337 86.68738911 32.34915981 85.35149574 32.3521347 C79.07507787 32.36580195 72.79867301 32.37547239 66.52224129 32.3793366 C59.28783433 32.38381564 52.05361646 32.40135949 44.81926697 32.43033719 C39.21996861 32.45198368 33.62072333 32.46204245 28.02138358 32.46337771 C24.68048115 32.46442363 21.33989785 32.47174053 17.9990139 32.48819733 C14.26955728 32.5052575 10.54056078 32.50337732 6.81108093 32.49688721 C5.16109856 32.51070938 5.16109856 32.51070938 3.4777832 32.52481079 C-4.06832739 32.48368818 -9.10010976 31.74967508 -14.90254211 26.57794189 C-18.68083478 22.24401795 -18.36249387 18.73384439 -18.30879211 13.12872314 C-17.93301151 9.13605426 -16.77589776 7.0373573 -14.02754211 4.14044189 C-9.461033 0.82972279 -5.55459784 0.01878652 0 0 Z " fill="#00FF00" transform="translate(18.027542114257813,439.85955810546875)"/>
<path d="M0 0 C1.13748688 -0.00511093 2.27497375 -0.01022186 3.44692993 -0.01548767 C7.19660749 -0.02935571 10.94610067 -0.02842892 14.69580078 -0.02612305 C17.30982532 -0.03001156 19.92384922 -0.03434655 22.53787231 -0.03910828 C28.013546 -0.04730774 33.48916806 -0.04642241 38.96484375 -0.04101562 C45.27635947 -0.03497891 51.58765208 -0.04728414 57.89912975 -0.06858569 C63.99188161 -0.08838596 70.08452983 -0.09136829 76.17731094 -0.08785057 C78.76000619 -0.08836298 81.34270507 -0.09358565 83.92538071 -0.10366249 C87.54157293 -0.11604034 91.15725307 -0.10922643 94.7734375 -0.09765625 C95.83346985 -0.10529999 96.8935022 -0.11294373 97.98565674 -0.12081909 C104.55192727 -0.07453563 111.98970508 0.11822665 117.1382122 4.72657299 C121.17839138 9.4490113 121.88149238 12.63077474 121.78564453 18.66918945 C121.36807941 22.70565228 120.19319199 25.25904573 117.51611328 28.2746582 C111.32718277 32.85597742 104.87745773 32.84651917 97.44384766 32.79223633 C95.66183708 32.80275024 95.66183708 32.80275024 93.84382629 32.81347656 C90.606039 32.82800206 87.36891254 32.82468684 84.13113594 32.81196022 C80.73027364 32.80177749 77.32945304 32.81124044 73.92858887 32.81750488 C68.21923997 32.82476606 62.51009858 32.81523406 56.80078125 32.79614258 C50.21591674 32.77437653 43.63154775 32.781429 37.04669523 32.8034482 C31.3759246 32.82164611 25.70530246 32.8241392 20.03451204 32.81369352 C16.65510222 32.80748256 13.27592471 32.80655621 9.89653015 32.81983948 C6.12680791 32.83002233 2.35803094 32.81447739 -1.41162109 32.79223633 C-2.52043137 32.80033325 -3.62924164 32.80843018 -4.77165222 32.81677246 C-12.64155741 32.73095559 -18.32232895 31.43621597 -23.98388672 25.7746582 C-26.22600007 20.54306037 -26.56702604 15.86599904 -25.48388672 10.2746582 C-23.07555083 5.76965342 -20.38203278 2.97527947 -15.5632019 1.1966095 C-10.44054931 -0.18879205 -5.27129156 -0.01227274 0 0 Z " fill="#00FF00" transform="translate(25.48388671875,392.725341796875)"/>
<path d="M0 0 C1.22994186 -0.00700928 2.45988373 -0.01401855 3.72709656 -0.02124023 C7.08895528 -0.03580025 10.4498256 -0.03242883 13.81162834 -0.01972389 C17.336224 -0.00956864 20.86077858 -0.01899656 24.38537598 -0.02526855 C30.30338081 -0.03253766 36.22118571 -0.02297679 42.13916016 -0.00390625 C48.97281686 0.0178613 55.80599614 0.01080939 62.63964128 -0.01121187 C68.51585735 -0.02938706 74.39193001 -0.03191392 80.26816511 -0.0214572 C83.77385244 -0.01523381 87.27931564 -0.01435449 90.7849884 -0.02760315 C94.69408604 -0.04134556 98.6026526 -0.02227726 102.51171875 0 C103.66826462 -0.00809692 104.82481049 -0.01619385 106.0164032 -0.02453613 C112.24274647 0.0412104 116.04383134 0.30274713 120.75585938 4.51757812 C124.6744742 8.84867872 125.40324325 12.39225697 125.13085938 18.05273438 C124.44208484 22.57999201 122.92744531 25.90618888 119.18991947 28.6795578 C113.06496202 32.03153692 107.44987562 32.08486263 100.57592773 32.03515625 C98.77687737 32.04567017 98.77687737 32.04567017 96.94148254 32.05639648 C93.67277378 32.07092234 90.40471956 32.06760704 87.13602138 32.05488014 C83.70399476 32.04470002 80.27200954 32.05415943 76.83998108 32.0604248 C71.07935827 32.06768575 65.31894114 32.05815356 59.55834961 32.0390625 C52.91098278 32.01728615 46.26410661 32.0243565 39.61675161 32.04636812 C33.89419274 32.06455433 28.17178105 32.06706512 22.4492026 32.05661345 C19.03796734 32.05039742 15.62696231 32.0494905 12.21574211 32.0627594 C8.41229034 32.07292898 4.60977834 32.0574163 0.80639648 32.03515625 C-0.3153598 32.04325317 -1.43711609 32.0513501 -2.59286499 32.05969238 C-9.03968345 31.98986866 -13.00403071 31.36346761 -18.24414062 27.51757812 C-21.73228938 23.85054994 -22.53693963 20.94361462 -22.74414062 16.01757812 C-22.54383811 11.09681303 -21.67331135 8.21747285 -18.24414062 4.51757812 C-12.65566946 -0.47205671 -7.25009838 -0.0507576 0 0 Z " fill="#00FF00" transform="translate(22.244140625,346.482421875)"/>
</svg>